<?xml version="1.0" encoding="UTF-8" standalone="no"?>
<!-- Created with Inkscape (http://www.inkscape.org/) -->

<svg
   width="56.25285"
   height="57.756886"
   viewBox="0 0 56.25285 57.756886"
   version="1.1"
   id="svg5"
   inkscape:version="1.2.2 (732a01da63, 2022-12-09)"
   sodipodi:docname="Glass.svg"
   xmlns:inkscape="http://www.inkscape.org/namespaces/inkscape"
   xmlns:sodipodi="http://sodipodi.sourceforge.net/DTD/sodipodi-0.dtd"
   xmlns="http://www.w3.org/2000/svg"
   xmlns:svg="http://www.w3.org/2000/svg">
  <sodipodi:namedview
     id="namedview7"
     pagecolor="#ffffff"
     bordercolor="#000000"
     borderopacity="0.25"
     inkscape:showpageshadow="2"
     inkscape:pageopacity="0.0"
     inkscape:pagecheckerboard="0"
     inkscape:deskcolor="#d1d1d1"
     inkscape:document-units="px"
     showgrid="false"
     inkscape:zoom="1.7475"
     inkscape:cx="300.14306"
     inkscape:cy="96.137339"
     inkscape:window-width="1920"
     inkscape:window-height="974"
     inkscape:window-x="-11"
     inkscape:window-y="-11"
     inkscape:window-maximized="1"
     inkscape:current-layer="layer1" />
  <defs
     id="defs2" />
  <g
     inkscape:label="图层 1"
     inkscape:groupmode="layer"
     id="layer1"
     transform="translate(-1.1487317,-0.3103818)">
    <rect
       style="fill:#f9f9f9;stroke:none;stroke-width:1.75745;stroke-dasharray:none;stroke-opacity:1"
       id="rect1066-1"
       width="3.4015336"
       height="30.24382"
       x="-24.940874"
       y="5.9738269"
       ry="1.770226"
       transform="rotate(-80.848147)" />
    <rect
       style="fill:#f9f9f9;stroke:none;stroke-width:1.75745;stroke-dasharray:none;stroke-opacity:1"
       id="rect1066-1-5"
       width="3.4407482"
       height="30.969698"
       x="4.9323483"
       y="11.925642"
       ry="1.770226"
       transform="rotate(-38.832912)" />
    <rect
       style="fill:#f9f9f9;stroke:none;stroke-width:0.219625"
       id="rect1066"
       width="3.540452"
       height="23.457886"
       x="13.607413"
       y="-2.6419303"
       ry="1.770226"
       transform="rotate(31.263586)" />
    <path
       style="opacity:0.4;fill:#cccccc;stroke:none;stroke-width:1.23289;stroke-dasharray:none;stroke-opacity:1"
       d="M 16.788789,24.492602 C 11.095767,23.568608 6.4333729,22.757152 6.4280168,22.68927 6.4240568,22.62123 8.1570148,19.687678 10.282161,16.169933 L 14.14608,9.7739655 16.689859,12.92966 c 1.399051,1.735646 4.368539,5.420202 6.598872,8.187882 2.230331,2.767719 4.009225,5.037309 3.953113,5.043605 -0.05631,0.004 -4.759956,-0.744591 -10.453055,-1.668545 z"
       id="path7374" />
    <rect
       style="fill:#f9f9f9;stroke:none;stroke-width:1.75745;stroke-dasharray:none;stroke-opacity:1"
       id="rect1066-1-8"
       width="3.4015336"
       height="30.24382"
       x="-42.952366"
       y="-36.145039"
       ry="1.770226"
       transform="rotate(-145.76431)" />
    <rect
       style="fill:#f9f9f9;stroke:none;stroke-width:1.75745;stroke-dasharray:none;stroke-opacity:1"
       id="rect1066-1-5-6"
       width="3.4407482"
       height="30.969698"
       x="-36.640915"
       y="-7.3116217"
       ry="1.770226"
       transform="rotate(-103.74908)" />
    <rect
       style="fill:#f9f9f9;stroke:none;stroke-width:0.219625"
       id="rect1066-2"
       width="3.540452"
       height="23.457886"
       x="-18.633894"
       y="29.899033"
       ry="1.770226"
       transform="rotate(-33.652583)" />
    <path
       style="opacity:0.4;fill:#cccccc;stroke:none;stroke-width:1.23289;stroke-dasharray:none;stroke-opacity:1"
       d="m 20.494852,40.13226 c -3.250401,4.764414 -5.961929,8.643037 -6.025667,8.619146 -0.06373,-0.02346 -1.985511,-2.838456 -4.270547,-6.254496 L 6.0439903,36.285858 9.9804851,35.319829 c 2.1650689,-0.531287 6.7610289,-1.658692 10.2131989,-2.505301 3.452209,-0.846649 6.261924,-1.495595 6.24382,-1.442103 -0.01955,0.05357 -2.692329,3.995383 -5.942652,8.759835 z"
       id="path7374-9" />
    <rect
       style="fill:#f9f9f9;stroke:none;stroke-width:1.75745;stroke-dasharray:none;stroke-opacity:1"
       id="rect1066-1-8-0"
       width="3.4015336"
       height="30.24382"
       x="-5.9116125"
       y="-69.667641"
       ry="1.770226"
       transform="rotate(140.08628)" />
    <rect
       style="fill:#f9f9f9;stroke:none;stroke-width:1.75745;stroke-dasharray:none;stroke-opacity:1"
       id="rect1066-1-5-6-7"
       width="3.4407482"
       height="30.969698"
       x="-31.55862"
       y="-57.010284"
       ry="1.770226"
       transform="rotate(-177.89849)" />
    <rect
       style="fill:#f9f9f9;stroke:none;stroke-width:0.219625"
       id="rect1066-2-49"
       width="3.540452"
       height="23.457886"
       x="-63.633652"
       y="8.200983"
       ry="1.770226"
       transform="rotate(-107.80199)" />
    <path
       style="opacity:0.4;fill:#cccccc;stroke:none;stroke-width:1.23289;stroke-dasharray:none;stroke-opacity:1"
       d="m 37.302623,40.724625 c 3.695505,4.428093 6.68603,8.095875 6.645598,8.150658 -0.04067,0.05475 -3.272807,1.134756 -7.183064,2.39988 l -7.109668,2.300287 0.145853,-4.050674 c 0.08016,-2.227869 0.251038,-6.956973 0.379295,-10.509168 0.128256,-3.552194 0.271763,-6.432294 0.317904,-6.400268 0.04653,0.03128 3.108145,3.681194 6.803651,8.109285 z"
       id="path7374-9-7" />
    <rect
       style="fill:#f9f9f9;stroke:none;stroke-width:1.75745;stroke-dasharray:none;stroke-opacity:1"
       id="rect1066-1-8-0-6"
       width="3.4015336"
       height="30.24382"
       x="36.311584"
       y="-45.818989"
       ry="1.770226"
       transform="rotate(68.271533)" />
    <rect
       style="fill:#f9f9f9;stroke:none;stroke-width:1.75745;stroke-dasharray:none;stroke-opacity:1"
       id="rect1066-1-5-6-7-9"
       width="3.4407482"
       height="30.969698"
       x="15.774487"
       y="-67.55265"
       ry="1.770226"
       transform="rotate(110.28677)" />
    <rect
       style="fill:#f9f9f9;stroke:none;stroke-width:0.219625"
       id="rect1066-2-49-5"
       width="3.540452"
       height="23.457886"
       x="-57.4324"
       y="-39.893757"
       ry="1.770226"
       transform="rotate(-179.61673)" />
    <path
       style="opacity:0.4;fill:#cccccc;stroke:none;stroke-width:1.23289;stroke-dasharray:none;stroke-opacity:1"
       d="m 43.809485,25.322514 c 5.36022,-2.128978 9.778145,-3.825443 9.817599,-3.769957 0.03949,0.05553 0.0567,3.463471 0.0391,7.573308 l -0.0352,7.472423 -3.802803,-1.402766 c -2.091557,-0.771572 -6.531185,-2.409696 -9.865852,-3.640371 -3.334667,-1.230636 -6.026253,-2.265485 -5.981286,-2.299661 0.04497,-0.0352 4.467352,-1.803997 9.827571,-3.932976 z"
       id="path7374-9-7-9" />
    <rect
       style="fill:#f9f9f9;stroke:none;stroke-width:1.75745;stroke-dasharray:none;stroke-opacity:1"
       id="rect1066-1-8-9"
       width="3.4015336"
       height="30.24382"
       x="24.654768"
       y="4.0389795"
       ry="1.770226"
       transform="rotate(-6.643206)" />
    <rect
       style="fill:#f9f9f9;stroke:none;stroke-width:1.75745;stroke-dasharray:none;stroke-opacity:1"
       id="rect1066-1-5-6-2"
       width="3.4407482"
       height="30.969698"
       x="40.48521"
       y="-22.707575"
       ry="1.770226"
       transform="rotate(35.372024)" />
    <rect
       style="fill:#f9f9f9;stroke:none;stroke-width:0.219625"
       id="rect1066-2-4"
       width="3.540452"
       height="23.457886"
       x="-6.8536243"
       y="-47.861526"
       ry="1.770226"
       transform="rotate(105.46853)" />
    <path
       style="opacity:0.4;fill:#cccccc;stroke:none;stroke-width:1.23289;stroke-dasharray:none;stroke-opacity:1"
       d="M 30.040884,15.162338 C 29.380325,9.4327165 28.892089,4.7255496 28.955905,4.7018927 c 0.06373,-0.023462 3.358871,0.8466878 7.322308,1.9340521 l 7.206174,1.9771037 -2.344121,3.3066695 c -1.28929,1.818661 -4.026431,5.678984 -6.082561,8.578439 -2.056092,2.899455 -3.755802,5.228991 -3.777074,5.176711 -0.01955,-0.05239 -0.579187,-4.782909 -1.239747,-10.51253 z"
       id="path7374-9-0" />
  </g>
</svg>
